<svg width="127" height="127" viewBox="0 0 127 127" fill="none" xmlns="http://www.w3.org/2000/svg">
<ellipse cx="63.2692" cy="63.2692" rx="63.2692" ry="63.2692" fill="#232323"/>
<path d="M58.86 86.14C63.1133 86.58 66.2667 86.8 68.32 86.8C70.4467 86.8 73.6367 86.5067 77.89 85.92C79.21 86.36 79.98 86.91 80.2 87.57C80.42 88.23 80.4933 88.9267 80.42 89.66C80.3467 90.32 80.3833 90.98 80.53 91.64C80.6767 92.3 81.3733 92.85 82.62 93.29C83.28 93.51 83.4633 94.17 83.17 95.27C82.95 96.2967 82.3633 97.4333 81.41 98.68C78.99 101.833 76.13 104.033 72.83 105.28C67.55 106.6 63.4067 107.37 60.4 107.59C55.4133 107.957 49.9867 107.773 44.12 107.04C37.6667 105.867 34.55 103.19 34.77 99.01C34.77 83.61 38.1433 68.1367 44.89 52.59C47.09 47.53 49.5833 42.2133 52.37 36.64C52.9567 35.4667 53.2867 34.1467 53.36 32.68C53.5067 31.2133 53.6167 29.7833 53.69 28.39C53.7633 26.9967 53.9833 25.75 54.35 24.65C54.7167 23.55 55.4867 22.78 56.66 22.34C71.9133 16.2533 83.9767 13.9067 92.85 15.3C95.93 15.3733 97.9467 16.4367 98.9 18.49C99.9267 20.47 100.037 22.7067 99.23 25.2C98.4967 27.6933 96.9933 30.04 94.72 32.24C92.52 34.44 89.7333 35.7967 86.36 36.31C82.0333 37.5567 79.3933 38.4 78.44 38.84C76.6067 39.72 75.2867 40.8933 74.48 42.36C73.4533 43.9733 72.5 45.5133 71.62 46.98C70.74 48.4467 70.1167 50.0233 69.75 51.71L69.31 54.13C70.7033 54.79 72.39 55.01 74.37 54.79C76.4233 54.4967 78.2933 54.24 79.98 54.02C81.74 53.7267 83.1333 53.69 84.16 53.91C85.26 54.13 85.48 55.23 84.82 57.21C84.2333 59.1167 83.0967 61.28 81.41 63.7C79.7967 66.12 77.4867 67.88 74.48 68.98C72.5733 69.3467 71.2533 69.64 70.52 69.86C69.86 70.0067 69.3467 70.1167 68.98 70.19C68.4667 70.2633 67 70.3733 64.58 70.52C61.1333 76.3867 59.0433 80.9333 58.31 84.16C58.0167 85.48 58.2 86.14 58.86 86.14Z" fill="url(#paint0_linear_154_805)"/>
<defs>
<linearGradient id="paint0_linear_154_805" x1="63" y1="-29" x2="67" y2="108.5" gradientUnits="userSpaceOnUse">
<stop stop-color="white"/>
<stop offset="1" stop-color="#FE3F3F"/>
</linearGradient>
</defs>
</svg>
