<svg width="26" height="36" viewBox="0 0 26 36" fill="none" xmlns="http://www.w3.org/2000/svg">
<rect width="26" height="36" rx="13" fill="#232323"/>
<path d="M15.9231 8.73591C15.7006 7.99779 14.7904 7.11938 13.5409 7.39949C13.2164 7.48509 12.9183 7.65108 12.6753 7.88181C12.4303 8.11447 12.2483 8.40554 12.1465 8.72774L11.8183 9.76677L11.2447 8.84038L11.0227 8.48188L11.0163 8.47157L11.0164 8.4715C10.4629 7.52725 9.13746 7.24073 8.11315 7.83243C7.63317 8.1106 7.3232 8.60682 7.19903 9.13316C7.07574 9.66126 7.1298 10.2471 7.41271 10.7235L9.74666 14.5429L10.0407 15.0241L9.52775 15.2584C7.76038 16.0657 6.45574 17.4352 5.89929 19.017L15.9231 8.73591ZM15.9231 8.73591L15.923 8.73594L15.9267 8.74899L16.0242 9.09849L16.2571 9.9335L16.8632 9.31374C17.1952 8.97431 17.6567 8.77189 18.2465 8.77189H18.2467C18.5041 8.77181 18.7589 8.82245 18.9968 8.92091C19.2346 9.01938 19.4507 9.16374 19.6327 9.34574L19.9862 8.99219L19.6327 9.34574C19.8147 9.52774 19.959 9.74383 20.0575 9.98164C20.156 10.2195 20.2066 10.4743 20.2065 10.7317V10.7319C20.2065 12.3001 20.1983 13.9016 20.1893 15.5021H20.1893V15.5044V15.5049V15.5056L20.1892 15.512C20.181 17.1108 20.1728 18.7081 20.1728 20.2719C20.1728 25.1637 16.6003 28.6303 12.7063 28.6549L12.7055 28.6549L15.9231 8.73591ZM7.85558 21.3006L7.84615 21.3003L7.8064 21.2988L7.80103 21.2986L7.80103 21.2986C7.34152 21.2763 6.90812 21.0051 6.62 20.5984C6.31998 20.1755 6.20792 19.6468 6.37193 19.1825C6.95181 17.5311 8.45116 16.0942 10.5029 15.4116C10.503 15.4115 10.5031 15.4115 10.5032 15.4115L10.5119 15.4086L10.5457 15.3973L10.5808 15.3909C10.6462 15.3791 10.7118 15.3685 10.7776 15.3592C10.7873 15.3575 10.7966 15.3538 10.8049 15.3484C10.8137 15.3427 10.8212 15.3352 10.8269 15.3264L10.8286 15.3237L10.8287 15.3237C10.8556 15.2827 10.873 15.2362 10.8798 15.1876L10.8804 15.1836C10.8886 15.1281 10.8854 15.075 10.8742 15.0363L10.8703 15.0227L10.8705 15.0227C10.8641 14.9979 10.8486 14.9765 10.8272 14.9626C10.6927 14.8822 10.5631 14.7899 10.4438 14.684L10.388 14.6345L10.3491 14.5708L7.84556 10.472L7.84139 10.4652L7.84145 10.4652C7.63763 10.1191 7.58661 9.67116 7.68656 9.24787L7.85558 21.3006ZM7.85558 21.3006H7.86501M7.85558 21.3006H7.86501M7.86501 21.3006C8.14438 21.3006 8.39554 21.2431 8.62806 21.1076C8.8497 20.9786 9.0217 20.7972 9.17344 20.6084L9.17346 20.6084M7.86501 21.3006L9.17346 20.6084M9.17346 20.6084L9.17617 20.605M9.17346 20.6084L9.17617 20.605M9.17617 20.605C9.28685 20.4648 9.39256 20.3208 9.49312 20.1733M9.17617 20.605L9.49312 20.1733M12.4453 17.9754C11.5343 17.9465 10.6452 18.258 9.95151 18.8491C9.66501 19.0966 9.44376 19.3816 9.26526 19.6291C9.20512 19.7122 9.15238 19.7878 9.10308 19.8585C9.09582 19.8689 9.08864 19.8792 9.08151 19.8894M12.4453 17.9754L7.86501 20.8006C8.27751 20.8006 8.51001 20.6356 8.78376 20.2951C8.88776 20.1634 8.98707 20.0281 9.08151 19.8894M12.4453 17.9754H12.4498H12.4453ZM9.08151 19.8894L9.49149 20.1756C9.49204 20.1748 9.49258 20.174 9.49312 20.1733M9.08151 19.8894L9.49482 20.1708C9.49425 20.1716 9.49369 20.1724 9.49312 20.1733M9.49312 20.1733C9.49987 20.1636 9.50662 20.1539 9.51337 20.1442C9.56278 20.0734 9.61285 20.0016 9.67018 19.9225L9.6708 19.9216C9.84242 19.6836 10.0361 19.4371 10.2771 19.2286C10.876 18.7188 11.6432 18.4502 12.4294 18.4751L12.4373 18.4754H12.4404C13.4142 18.5129 14.1541 18.9207 14.6451 19.5206C15.1337 20.118 15.3663 20.8924 15.3571 21.6541C15.3478 22.4158 15.0963 23.182 14.594 23.7621L14.5939 23.7622C14.0876 24.3472 13.337 24.7294 12.3643 24.7294C11.7441 24.7294 11.0922 24.5043 10.5446 24.1464C9.99798 23.7889 9.53288 23.2827 9.31159 22.6987C9.20814 22.4238 8.98403 22.2085 8.7477 22.0652C8.5016 21.9161 8.19467 21.8148 7.86076 21.8011L7.86076 21.801L7.85378 21.8008L7.79828 21.7993L7.79829 21.7991H7.78476H7.78176C6.83017 21.7991 6.06667 22.7882 6.35283 23.8162L6.35645 23.8292L6.36077 23.842C7.24349 26.4574 9.75337 28.1613 12.7014 28.1549L12.7033 28.1549C16.292 28.1328 19.6728 24.9197 19.6728 20.2719C19.6728 18.7037 19.681 17.1024 19.6893 15.5017C19.6983 13.8997 19.7065 12.2987 19.7065 10.7319C19.7065 9.92475 19.0537 9.27189 18.2465 9.27189C17.9804 9.27189 17.7381 9.32168 17.525 9.43526C17.31 9.54983 17.1582 9.71144 17.0476 9.88261C17.0475 9.88276 17.0474 9.8829 17.0473 9.88305L17.4673 10.1544L9.49312 20.1733ZM12.6802 8.86863C12.6848 8.82592 12.6907 8.78336 12.6981 8.74104L12.7133 8.65296L12.7581 8.5756C12.9502 8.24378 13.263 7.99894 13.6313 7.89217L13.6489 7.88706L13.6669 7.88325C14.5937 7.68685 15.2806 8.33452 15.4442 8.88066L15.4468 8.88927L15.4467 8.88929L16.2132 11.626L16.2138 11.6279C16.2157 11.6348 16.2178 11.6416 16.2202 11.6483L16.2268 11.6668L16.2319 11.6858L16.6202 13.1296C16.6202 13.1296 16.6202 13.1297 16.6202 13.1298C16.6257 13.1498 16.6318 13.159 16.634 13.162C16.6363 13.1651 16.6383 13.1668 16.6407 13.1683C16.6467 13.172 16.6631 13.1784 16.6879 13.1756C16.7126 13.1729 16.7271 13.1631 16.7321 13.1582C16.7341 13.1563 16.7356 13.1542 16.7371 13.1507C16.7386 13.1473 16.7426 13.1371 16.7435 13.1162L16.833 10.9626L7.68662 9.24761C7.78661 8.82289 8.02904 8.45998 8.36348 8.26608L8.36377 8.26591C9.19152 7.78674 10.1973 8.0559 10.5879 8.729L10.5922 8.73612L10.5935 8.73814L10.5935 8.73814L12.6245 12.0006L12.6285 12.0071L12.6285 12.0072L13.3925 13.2773C13.3925 13.2773 13.3925 13.2774 13.3926 13.2774C13.4032 13.295 13.4115 13.3021 13.4145 13.3044C13.4176 13.3068 13.4201 13.3079 13.4228 13.3087C13.4297 13.3107 13.4471 13.3124 13.4699 13.3032C13.4927 13.294 13.5041 13.2808 13.5077 13.2746C13.5092 13.2721 13.5102 13.2696 13.5108 13.2657C13.5113 13.2619 13.5124 13.2511 13.5079 13.231C13.5078 13.231 13.5078 13.231 13.5078 13.231L12.7579 9.92835L12.7551 9.9158L12.7551 9.9158C12.6911 9.65321 12.6378 9.24984 12.6802 8.86863ZM12.6802 8.86863C12.6803 8.86818 12.6803 8.86773 12.6804 8.86728L13.1773 8.92289L12.6801 8.86988C12.6801 8.86946 12.6802 8.86905 12.6802 8.86863ZM8.97432 21.5431L9.33855 21.176C9.41741 21.0965 9.49128 21.0119 9.56241 20.9233L9.563 20.9226C9.68727 20.7684 9.8162 20.5842 9.93681 20.4105L9.94061 20.405L9.94064 20.405C9.95533 20.3845 9.97179 20.3611 9.98884 20.337C10.0189 20.2943 10.0508 20.2491 10.078 20.2121C10.2437 19.9818 10.4094 19.7748 10.6039 19.6065L10.6171 19.5951L10.6234 19.5904C11.1247 19.1731 11.7618 18.954 12.414 18.9749L12.4164 18.975C13.2514 19.0057 13.8587 19.3497 14.2584 19.8371L14.2585 19.8372C14.6632 20.331 14.8657 20.9869 14.857 21.6484M8.97432 21.5431L14.357 21.6421M8.97432 21.5431L9.35355 21.8948C9.5386 22.0664 9.68578 22.2742 9.77924 22.5215M8.97432 21.5431L9.80339 21.6371C9.99039 21.8358 10.1436 22.0713 10.247 22.3449M14.857 21.6484C14.857 21.6485 14.857 21.6487 14.857 21.6488L14.357 21.6421M14.857 21.6484C14.857 21.6483 14.857 21.6482 14.857 21.6482L14.357 21.6421M14.857 21.6484C14.849 22.309 14.6299 22.9563 14.217 23.4339L14.2168 23.4341C13.8068 23.9078 13.1948 24.2294 12.3643 24.2294C11.859 24.2294 11.2996 24.0429 10.8178 23.7278L10.8176 23.7277C10.337 23.413 9.95346 22.9842 9.77924 22.5215M14.357 21.6421C14.3503 22.2016 14.1643 22.7304 13.8388 23.1069C13.5253 23.4691 13.052 23.7294 12.3643 23.7294C11.9735 23.7294 11.5078 23.5816 11.0915 23.3094C10.6745 23.0364 10.3745 22.6839 10.247 22.3449M9.77924 22.5215C9.77925 22.5215 9.77927 22.5216 9.77929 22.5216L10.247 22.3449M9.77924 22.5215C9.77916 22.5213 9.77909 22.5211 9.77902 22.5209L10.247 22.3449" fill="#D9D9D9" stroke="white"/>
</svg>
